{
	"asset":{
		"generator":"Khronos glTF Blender I/O v4.0.44",
		"version":"2.0"
	},
	"scene":0,
	"scenes":[
		{
			"name":"Scene",
			"nodes":[
				10
			]
		}
	],
	"nodes":[
		{
			"name":"Bone.003.L.002",
			"rotation":[
				0.14916424453258514,
				-1.1472840810711205e-07,
				-0.03116411343216896,
				0.9883212447166443
			],
			"scale":[
				1,
				0.9999998807907104,
				1
			],
			"translation":[
				-1.4901161193847656e-08,
				2.240978956222534,
				-8.416827768087387e-08
			]
		},
		{
			"children":[
				0
			],
			"name":"Bone.003.L",
			"rotation":[
				0.1008177101612091,
				0.0025510976556688547,
				-0.03796461224555969,
				0.9941770434379578
			],
			"scale":[
				1,
				1.0000001192092896,
				1
			],
			"translation":[
				4.470348358154297e-08,
				2.574707508087158,
				1.7695128917694092e-08
			]
		},
		{
			"children":[
				1
			],
			"name":"Bone.002.L",
			"rotation":[
				-0.2908027768135071,
				0.00393300736322999,
				0.16835547983646393,
				0.9418464303016663
			],
			"scale":[
				1,
				0.9999999403953552,
				0.9999999403953552
			],
			"translation":[
				1.862645149230957e-08,
				1.1400959491729736,
				4.0978193283081055e-08
			]
		},
		{
			"children":[
				2
			],
			"name":"Bone.001.L",
			"rotation":[
				0.8299905061721802,
				0.018023693934082985,
				-0.1329014003276825,
				0.5414130687713623
			],
			"translation":[
				0,
				0.7705604434013367,
				0
			]
		},
		{
			"name":"Bone.003.R.002",
			"rotation":[
				0.14916421473026276,
				1.1331491123200976e-07,
				0.031164109706878662,
				0.9883212447166443
			],
			"translation":[
				-1.30385160446167e-08,
				2.2409791946411133,
				-1.257285475730896e-08
			]
		},
		{
			"children":[
				4
			],
			"name":"Bone.003.R",
			"rotation":[
				0.10081774741411209,
				-0.002551104174926877,
				0.0379645973443985,
				0.9941770434379578
			],
			"translation":[
				-2.2351741790771484e-08,
				2.574707508087158,
				-3.073364496231079e-08
			]
		},
		{
			"children":[
				5
			],
			"name":"Bone.002.R",
			"rotation":[
				-0.29080280661582947,
				-0.003932975698262453,
				-0.1683555245399475,
				0.9418464303016663
			],
			"scale":[
				0.9999999403953552,
				0.9999999403953552,
				1
			],
			"translation":[
				-7.450580596923828e-09,
				1.140095829963684,
				-1.4901161193847656e-08
			]
		},
		{
			"children":[
				6
			],
			"name":"Bone.001.R",
			"rotation":[
				0.13290175795555115,
				0.5414131879806519,
				-0.8299903869628906,
				0.018023911863565445
			],
			"scale":[
				1,
				1.0000001192092896,
				1
			],
			"translation":[
				0,
				0.7705604434013367,
				0
			]
		},
		{
			"children":[
				3,
				7
			],
			"name":"Bone.C",
			"rotation":[
				0,
				0.70710688829422,
				4.2146837131440407e-08,
				0.7071066498756409
			],
			"scale":[
				0.9999999403953552,
				0.9999997615814209,
				0.9999998807907104
			]
		},
		{
			"mesh":0,
			"name":"Cube",
			"skin":0
		},
		{
			"children":[
				9,
				8
			],
			"name":"Armature"
		}
	],
	"materials":[
		{
			"doubleSided":true,
			"name":"Material",
			"pbrMetallicRoughness":{
				"baseColorFactor":[
					0.800000011920929,
					0.800000011920929,
					0.800000011920929,
					1
				],
				"metallicFactor":0,
				"roughnessFactor":0.5
			}
		}
	],
	"meshes":[
		{
			"name":"Cube",
			"primitives":[
				{
					"attributes":{
						"POSITION":0,
						"NORMAL":1,
						"TEXCOORD_0":2,
						"JOINTS_0":3,
						"WEIGHTS_0":4
					},
					"indices":5,
					"material":0
				}
			]
		}
	],
	"skins":[
		{
			"inverseBindMatrices":6,
			"joints":[
				8,
				3,
				2,
				1,
				0,
				7,
				6,
				5,
				4
			],
			"name":"Armature"
		}
	],
	"accessors":[
		{
			"bufferView":0,
			"componentType":5126,
			"count":324,
			"max":[
				6.982466697692871,
				1,
				4
			],
			"min":[
				-6.982466697692871,
				-0.75,
				-3
			],
			"type":"VEC3"
		},
		{
			"bufferView":1,
			"componentType":5126,
			"count":324,
			"type":"VEC3"
		},
		{
			"bufferView":2,
			"componentType":5126,
			"count":324,
			"type":"VEC2"
		},
		{
			"bufferView":3,
			"componentType":5121,
			"count":324,
			"type":"VEC4"
		},
		{
			"bufferView":4,
			"componentType":5126,
			"count":324,
			"type":"VEC4"
		},
		{
			"bufferView":5,
			"componentType":5123,
			"count":564,
			"type":"SCALAR"
		},
		{
			"bufferView":6,
			"componentType":5126,
			"count":9,
			"type":"MAT4"
		}
	],
	"bufferViews":[
		{
			"buffer":0,
			"byteLength":3888,
			"byteOffset":0,
			"target":34962
		},
		{
			"buffer":0,
			"byteLength":3888,
			"byteOffset":3888,
			"target":34962
		},
		{
			"buffer":0,
			"byteLength":2592,
			"byteOffset":7776,
			"target":34962
		},
		{
			"buffer":0,
			"byteLength":1296,
			"byteOffset":10368,
			"target":34962
		},
		{
			"buffer":0,
			"byteLength":5184,
			"byteOffset":11664,
			"target":34962
		},
		{
			"buffer":0,
			"byteLength":1128,
			"byteOffset":16848,
			"target":34963
		},
		{
			"buffer":0,
			"byteLength":576,
			"byteOffset":17976
		}
	],
	"buffers":[
		{
			"byteLength":18552,
			"uri":"birb.bin"
		}
	]
}
